M48
; Layer_Color=9474304
; FILE_FORMAT=3:3
METRIC,TZ
T01C0.600
T02C0.800
T03C1.000
T04C1.200
%
G90
G05
T01
X16250Y13750
X13750Y16250
X16250Y16250
X18750Y16250
X21250Y16250
X23750Y16250
X26250Y16250
X28750Y16250
X31250Y16250
X33750Y16250
X36250Y16250
X38750Y16250
X13750Y18750
X16250Y18750
X18750Y18750
X21250Y18750
X23750Y18750
X26250Y18750
X28750Y18750
X31250Y18750
X33750Y18750
X36250Y18750
X38750Y18750
T02
X50000Y25000
X60000Y25000
X70000Y25000
X50000Y35000
X60000Y35000
X70000Y35000
X50000Y45000
X60000Y45000
X70000Y45000
T03
X100000Y50000
X110000Y50000
X120000Y50000
X100000Y60000
X110000Y60000
X120000Y60000
T04
X150000Y75000
X160000Y75000
X150000Y85000
X160000Y85000
M30
