M48
INCH,LZ
FMAT,2
T01C0.024
T02C0.031
T03C0.040
T04C0.060
%
G90
G05
T01
X0650Y0550
X0550Y0650
X0650Y0650
X0750Y0650
X0850Y0650
X0950Y0650
X1050Y0650
X1150Y0650
X1250Y0650
X1350Y0650
X1450Y0650
X1550Y0650
X0550Y0750
X0650Y0750
X0750Y0750
X0850Y0750
X0950Y0750
X1050Y0750
X1150Y0750
X1250Y0750
X1350Y0750
X1450Y0750
X1550Y0750
T02
X2000Y1000
X2400Y1000
X2800Y1000
X2000Y1400
X2400Y1400
X2800Y1400
X2000Y1800
X2400Y1800
X2800Y1800
T03
X4000Y2000
X4400Y2000
X4800Y2000
X4000Y2400
X4400Y2400
X4800Y2400
T04
X6000Y3000
X6400Y3000
X6000Y3400
X6400Y3400
M30
