M48
; DRILL file {KiCad 9.0.4} date 2026-03-24T11:01:22+0000
; FORMAT={-:-/ absolute / metric / decimal}
; #@! TF.CreationDate,2026-03-24T11:01:22+00:00
; #@! TF.GenerationSoftware,Kicad,Pcbnew,9.0.4
; #@! TF.FileFunction,Plated,1,2,PTH
FMAT,2
METRIC
; #@! TA.AperFunction,Plated,PTH,ViaDrill
T1C0.381
; #@! TA.AperFunction,Plated,PTH,ViaDrill
T2C0.399
; #@! TA.AperFunction,Plated,PTH,ComponentDrill
T3C1.000
%
G90
G05
T1
X151.49Y-72.77
X151.5Y-75.181
X151.5Y-77.182
X151.5Y-79.181
X151.5Y-90.682
X151.5Y-93.182
X151.5Y-95.681
X152.75Y-72.2
X152.75Y-74.2
X152.78Y-76.2
X152.811Y-79.082
X152.981Y-89.461
X152.981Y-92.001
X152.981Y-94.541
X153.009Y-96.672
X154.4Y-69.181
X154.4Y-70.781
X156.399Y-89.641
X156.399Y-92.14
X156.399Y-94.84
X157.009Y-72.181
X157.009Y-74.183
X157.009Y-76.181
X157.009Y-78.183
X158.899Y-94.84
X161.01Y-72.181
X161.01Y-74.183
X161.01Y-76.181
X161.01Y-78.183
X161.401Y-89.641
X161.401Y-92.14
X161.401Y-94.84
X161.401Y-97.34
X163.509Y-69.181
X163.509Y-71.183
T2
X157.45Y-85.2
X157.5Y-82.9
X157.5Y-84.0
X158.51Y-84.041
X159.511Y-81.483
X159.511Y-82.861
X159.511Y-86.45
X159.55Y-85.15
X159.75Y-84.041
X161.21Y-84.023
X161.5Y-82.9
X161.55Y-85.2
T3
X154.5Y-73.92
X154.5Y-76.46
X154.5Y-79.0
X154.5Y-81.54
X154.5Y-84.08
X154.5Y-86.62
X154.5Y-89.16
X154.5Y-91.7
X154.5Y-94.24
X165.0Y-74.0
X165.0Y-76.54
X165.0Y-79.08
X165.0Y-81.62
X165.0Y-84.16
X165.0Y-86.7
X165.0Y-89.24
X165.0Y-91.78
X165.0Y-94.32
M30
